<svg width="24" height="24" viewBox="0 0 24 24" fill="none" xmlns="http://www.w3.org/2000/svg">
<path d="M3.10039 12.0861L3.10038 12.0854C3.04543 4.13522 12.7205 0.0933459 18.325 5.72742C23.8699 11.3539 19.8664 20.9072 11.9574 20.9002H11.9573C10.556 20.9002 9.21891 20.586 7.98245 19.9664C6.74827 19.3478 5.25518 19.5978 4.26698 20.586L4.12946 20.7235C4.01412 20.8389 3.85989 20.9002 3.70291 20.9002C3.62523 20.9002 3.54693 20.8852 3.47227 20.8542C3.24693 20.7609 3.1 20.541 3.1 20.2971L3.10039 12.0861ZM8.52284 18.8881C9.59211 19.424 10.7511 19.6952 11.9652 19.6941C18.7737 19.704 22.2641 11.3878 17.4677 6.57579L17.4676 6.57571C12.6035 1.70798 4.27119 5.19471 4.30645 12.0764L4.30647 12.0801L4.30648 12.0827L4.30617 18.8695L4.30616 19.0372L4.45373 18.9574C5.10531 18.6051 5.83011 18.4234 6.55978 18.4234C7.22728 18.4234 7.89874 18.5753 8.52284 18.8881ZM9.78987 12.0012C9.78987 12.4306 9.44224 12.7789 9.01302 12.78C7.9781 12.737 7.97825 11.2652 9.01302 11.2224C9.44224 11.2234 9.78987 11.5717 9.78987 12.0012ZM11.2554 11.9992C11.2564 11.57 11.6047 11.2223 12.0342 11.2223C12.4636 11.2223 12.8119 11.57 12.813 11.9992C12.7701 13.034 11.2984 13.0341 11.2554 11.9992ZM15.8361 11.9992C15.7932 13.034 14.3215 13.0341 14.2785 11.9992C14.2795 11.57 14.6278 11.2223 15.0573 11.2223C15.4867 11.2223 15.835 11.57 15.8361 11.9992Z" fill="#079294" stroke="#079294" stroke-width="0.2"/>
</svg>
