<svg width="85" height="43" viewBox="0 0 85 43" fill="none" xmlns="http://www.w3.org/2000/svg">
<path d="M90.219 42.9287H-5.21973V-0.000335693H90.219V42.9287Z" fill="white"/>
<path d="M3.87412 18.4771V17.195C3.87412 16.9778 4.05017 16.8017 4.2674 16.8017H10.6047V18.8704H4.2674C4.05017 18.8704 3.87412 18.6943 3.87412 18.4771ZM11.968 9.90591H0.971596V12.6486H10.2114C10.4286 12.6486 10.6047 12.8245 10.6047 13.0419V14.4707H2.51327C1.13682 14.4707 0.0224609 15.5876 0.0224609 16.9616V19.3292C0.0224609 20.7049 1.13769 21.8201 2.51327 21.8201H14.4589V12.3968C14.4589 11.0211 13.3437 9.90591 11.968 9.90591Z" fill="#950D00"/>
<path d="M36.9438 12.7105C36.8645 12.664 36.7134 12.639 36.4926 12.639H29.5249V18.8706H36.4926C36.7153 18.8706 36.8645 18.8435 36.9438 18.7873C37.0233 18.7313 37.0639 18.6015 37.0639 18.3962V13.1152C37.0639 12.8926 37.0233 12.7589 36.9438 12.7105ZM29.5249 26.4811H25.6714V9.90454H36.8024C37.5305 9.90454 38.158 9.95293 38.6809 10.0478C39.2037 10.1428 39.6317 10.3209 39.9647 10.5823C40.2979 10.8438 40.5399 11.2098 40.6909 11.6764C40.84 12.1452 40.9155 12.7435 40.9155 13.4716V18.2529C40.9155 18.9985 40.84 19.6007 40.6909 20.0597C40.5399 20.5206 40.2979 20.8807 39.9647 21.1422C39.6317 21.4035 39.2037 21.5817 38.6809 21.6767C38.158 21.7714 37.5305 21.82 36.8024 21.82H29.5249V26.4811Z" fill="#950D00"/>
<path d="M62.8446 13.1155C62.8446 12.8929 62.804 12.7591 62.7245 12.7107C62.6452 12.6642 62.4941 12.6392 62.2734 12.6392H56.3263V21.8202H52.4746V9.90476H62.5814C63.3115 9.90476 63.9369 9.95315 64.4617 10.048C64.9847 10.1431 65.4126 10.3211 65.7456 10.5825C66.0786 10.844 66.3207 11.21 66.4698 11.6766C66.6209 12.1454 66.6964 12.7437 66.6964 13.4718V21.8202H62.8446V13.1155Z" fill="#950D00"/>
<path d="M74.3624 18.4766V17.1945C74.3624 16.9773 74.5383 16.8012 74.7557 16.8012H81.093V18.8699H74.7557C74.5383 18.8699 74.3624 18.6938 74.3624 18.4766ZM82.4563 9.90542H71.4598V12.6481H80.6995C80.9167 12.6481 81.093 12.824 81.093 13.0414V14.4702H73.0016C71.625 14.4702 70.5107 15.5872 70.5107 16.9611V19.3287C70.5107 20.7044 71.6259 21.8196 73.0016 21.8196H84.9472V12.3963C84.9472 11.0206 83.832 9.90542 82.4563 9.90542Z" fill="#950D00"/>
<path d="M21.8171 21.8202H17.9634V5.24349H21.8171V21.8202Z" fill="#950D00"/>
<path d="M48.6223 21.8203H44.7686V9.90488H48.6223V21.8203Z" fill="#950D00"/>
<path d="M48.6223 7.57495H44.7686V5.24337H48.6223V7.57495Z" fill="#950D00"/>
<path d="M10.2572 37.6843V34.0751C10.2572 33.7126 10.2597 33.3445 10.2655 32.9709C10.2709 32.5974 10.2845 32.2566 10.3067 31.9491H10.2738C10.2297 32.015 10.1638 32.1084 10.076 32.229C9.98788 32.3501 9.88885 32.4847 9.77935 32.6328C9.66934 32.7813 9.55666 32.9352 9.44133 33.0943C9.32599 33.2538 9.2189 33.394 9.12006 33.5147L6.81275 36.3989H6.08758L3.81307 33.5476C3.71427 33.4269 3.60428 33.2866 3.48354 33.1273C3.36239 32.9682 3.24457 32.8116 3.12899 32.6575C3.01365 32.5039 2.90929 32.3639 2.81602 32.2374C2.72238 32.1111 2.65371 32.015 2.60996 31.9491H2.57712C2.59874 32.2347 2.61262 32.5615 2.61825 32.9295C2.62359 33.2978 2.62644 33.6575 2.62644 34.0091V37.6843H0.0224609V29.0152H2.87372L5.14805 31.9325C5.23588 32.0534 5.34297 32.1936 5.46945 32.3527C5.59558 32.5121 5.71916 32.6742 5.8403 32.8389C5.96098 33.0037 6.07929 33.163 6.19461 33.3169C6.31002 33.4708 6.40056 33.5915 6.4665 33.6794H6.49953C6.56547 33.5807 6.65044 33.4597 6.75506 33.3169C6.85923 33.1743 6.97191 33.023 7.09282 32.8638C7.21348 32.7045 7.33445 32.5424 7.45542 32.3775C7.57614 32.2127 7.69149 32.0643 7.80143 31.9325L10.076 29.0152H12.8613V37.6843H10.2572Z" fill="#950D00"/>
<path d="M22.3397 31.5699L20.6751 34.3222H24.0371L22.3397 31.5699ZM25.9491 37.6843L24.9437 35.9541H19.7687L18.747 37.6843H15.7803L21.1859 29.0152H23.5924L28.9979 37.6843H25.9491Z" fill="#950D00"/>
<path d="M39.8445 31.2566C39.8445 31.0702 39.8058 30.9547 39.7291 30.9108C39.652 30.8668 39.5367 30.8448 39.3828 30.8448H34.587V33.0367H39.3828C39.5586 33.0367 39.6796 33.012 39.7453 32.9625C39.8113 32.9131 39.8445 32.8005 39.8445 32.6247V31.2566ZM39.7453 37.6843L36.8778 34.8825H34.587V37.6843H31.917V29.0152H39.6466C40.207 29.0152 40.6657 29.054 41.0226 29.1306C41.3798 29.2078 41.6598 29.3367 41.8635 29.5179C42.0664 29.6992 42.2095 29.9355 42.2917 30.2266C42.3742 30.5179 42.4155 30.8834 42.4155 31.3226V32.6247C42.4155 32.9436 42.3796 33.2401 42.3082 33.5147C42.2368 33.7894 42.1105 34.0256 41.9292 34.2234C41.7479 34.4211 41.5034 34.5775 41.1961 34.6931C40.8881 34.8083 40.5037 34.8662 40.0423 34.8662L43.1077 37.6843H39.7453Z" fill="#950D00"/>
<path d="M54.1625 37.6843L49.004 34.3058V37.6843H46.334V29.0152H49.004V32.1303L53.8494 29.0152H57.7389L51.2454 33.1522L58.3487 37.6843H54.1625Z" fill="#950D00"/>
<path d="M61.2173 37.6843V29.0152H71.2047V30.8448H63.8871V32.4105H68.8314V34.0256H63.8871V35.789H71.2872V37.6843H61.2173Z" fill="#950D00"/>
<path d="M78.062 37.6843V30.8448H73.8428V29.0152H84.9511V30.8448H80.732V37.6843H78.062Z" fill="#950D00"/>
</svg>
